<svg width="672" height="187" viewBox="0 0 672 187" xmlns="http://www.w3.org/2000/svg"><title>fedex-logo</title><g fill-rule="nonzero" fill="none"><path fill="#F60" d="M553.14 179.4l-24.84-27.9-24.66 27.9H451.8l50.7-56.94-50.7-56.94h53.46l25.08 27.66 24.18-27.66h51.6l-50.46 56.7 51.18 57.18zM352.26 179.4V0h99.54v40.02h-57.36v25.5h57.36v38.46h-57.36v35.28h57.36v40.14z"/><path d="M310.26 0v73.44h-.48c-8.6352-9.8324-21.3152-15.1434-34.38-14.4-26.2845.231-49.13 18.1037-55.68 43.56-8.34-27.36-30-44.1-61.62-44.1-25.86 0-46.26 11.58-56.94 30.54V65.52H47.64V39.96h58.32V0H0v179.4h47.64v-75.42H95.1a71.46 71.46 0 0 0-2.16 18c0 37.44 28.56 63.66 65.1 63.66 30.66 0 50.88-14.4 61.56-40.68h-40.8c-4.1448 7.371-12.387 11.4444-20.76 10.26-13.2952-.2925-23.9382-11.1217-24-24.42h83.28c3.6 30 26.76 55.32 58.5 55.32 13.5982.043 26.3187-6.7112 33.9-18h.48v11.28h42V0h-41.94zM135.48 104.52c1.9916-10.8747 11.4445-18.79 22.5-18.84 11.3205-.5725 21.1975 7.6105 22.74 18.84h-45.24zM284.7 152.1c-15.48 0-25.08-14.4-25.08-29.52 0-16.08 8.4-31.56 25.08-31.56s24 15.48 24 31.56-7.02 29.52-23.94 29.52h-.06z" fill="#4D148C"/><path d="M666.9 157.98c-.2634-9.6091-8.2201-17.2115-17.8313-17.0371-9.6111.1744-17.2868 8.0604-17.2014 17.6727.0854 9.6124 7.9 17.3608 17.5127 17.3644a17.16 17.16 0 0 0 17.52-18zm-22.08.9v12h-3.78v-26.16h9.42c5.52 0 8.04 2.4 8.04 7.14.0978 2.7086-1.8273 5.07-4.5 5.52 2.16.36 3 2.28 3.48 6a24.36 24.36 0 0 0 1.62 7.26h-4.5a83.28 83.28 0 0 1-1.74-8.76c-.394-2.0295-2.3453-3.366-4.38-3h-3.66zm4.74-3.36c3.66 0 4.74-1.98 4.74-3.66 0-1.68-1.02-3.66-4.74-3.66h-4.74v7.38h4.74v-.06zm-21.78 2.4c-.0973-8.7818 5.1178-16.7532 13.2034-20.1815s17.441-1.6349 23.6856 4.5405c6.2446 6.1754 8.1422 15.5102 4.8042 23.6335-3.338 8.1233-11.2508 13.427-20.0332 13.4275a21.18 21.18 0 0 1-21.66-21.42z" fill="#F60"/></g></svg>