<?xml version="1.0" encoding="UTF-8" standalone="no"?>
<!-- Generator: Adobe Illustrator 23.0.3, SVG Export Plug-In . SVG Version: 6.00 Build 0)  -->

<svg
   xmlns:dc="http://purl.org/dc/elements/1.1/"
   xmlns:cc="http://creativecommons.org/ns#"
   xmlns:rdf="http://www.w3.org/1999/02/22-rdf-syntax-ns#"
   xmlns:svg="http://www.w3.org/2000/svg"
   xmlns="http://www.w3.org/2000/svg"
   xmlns:sodipodi="http://sodipodi.sourceforge.net/DTD/sodipodi-0.dtd"
   xmlns:inkscape="http://www.inkscape.org/namespaces/inkscape"
   version="1.1"
   id="Layer_1"
   x="0px"
   y="0px"
   viewBox="0 0 410.75 132.5"
   xml:space="preserve"
   sodipodi:docname="logo-nbc.svg"
   width="155"
   height="50"
   inkscape:version="0.92.4 (5da689c313, 2019-01-14)"><metadata
   id="metadata41"><rdf:RDF><cc:Work
       rdf:about=""><dc:format>image/svg+xml</dc:format><dc:type
         rdf:resource="http://purl.org/dc/dcmitype/StillImage" /><dc:title></dc:title></cc:Work></rdf:RDF></metadata><defs
   id="defs39" /><sodipodi:namedview
   pagecolor="#ffffff"
   bordercolor="#666666"
   borderopacity="1"
   objecttolerance="10"
   gridtolerance="10"
   guidetolerance="10"
   inkscape:pageopacity="0"
   inkscape:pageshadow="2"
   inkscape:window-width="2560"
   inkscape:window-height="1377"
   id="namedview37"
   showgrid="false"
   scale-x="1.5"
   inkscape:zoom="6.8114836"
   inkscape:cx="149.49006"
   inkscape:cy="19.003157"
   inkscape:window-x="-8"
   inkscape:window-y="-8"
   inkscape:window-maximized="1"
   inkscape:current-layer="Layer_1"
   showguides="true"
   inkscape:guide-bbox="true" />
<style
   type="text/css"
   id="style2">
	.st0{fill:#E41C23;}
	.st1{fill:#00324D;}
</style>
<g
   id="g8"
   transform="translate(-55.63213,-28.612645)">
	<g
   id="g6">
		<path
   class="st0"
   d="m 128.2,63.6 c -2,0.5 -3.4,0.8 -4.9,0.2 -1.1,-0.4 -2,-1.7 -2.8,-2.8 L 107,42.5 c -0.8,-1.1 -1.7,-2.4 -2.8,-2.8 -1.4,-0.6 -2.9,-0.2 -4.9,0.2 L 55.5,51.6 v 81.5 l 43.9,-11.7 c 2,-0.4 3.5,-0.8 4.9,-0.2 1.1,0.5 2,1.7 2.8,2.8 l 13.5,18.6 c 0.8,1.1 1.7,2.3 2.8,2.8 1.4,0.5 2.9,0.2 4.9,-0.2 l 43.8,-11.7 V 51.9 Z"
   id="path4"
   inkscape:connector-curvature="0"
   style="fill:#e41c23" />
	</g>
</g>
<g
   id="g34"
   transform="translate(-55.63213,-28.612645)">
	<polygon
   class="st1"
   points="207.2,86.6 207.2,61.8 221.4,86.6 228.7,86.6 228.7,51.9 221.9,55.2 221.9,76 221.8,76 208,51.9 200.4,55.6 200.4,86.6 "
   id="polygon10"
   style="fill:#00324d" />
	<path
   class="st1"
   d="m 252.8,51.9 v 0 l -10.1,4.9 -10.6,29.8 h 7.6 l 2.4,-7.2 H 255 l 2.2,7.2 h 7.9 z m -8.7,21.5 4.4,-13.7 h 0.1 l 4.3,13.7 z"
   id="path12"
   inkscape:connector-curvature="0"
   style="fill:#00324d" />
	<path
   class="st1"
   d="m 394.6,51.9 v 0 l -10.1,4.9 -10.6,29.8 h 7.6 l 2.4,-7.2 h 12.8 l 2.2,7.2 h 7.9 z m -8.7,21.5 4.4,-13.7 h 0.1 l 4.3,13.7 z"
   id="path14"
   inkscape:connector-curvature="0"
   style="fill:#00324d" />
	<polygon
   class="st1"
   points="271.3,58 271.3,86.6 278.5,86.6 278.5,58 285.5,58 289,51.9 264.3,51.9 260.8,58 "
   id="polygon16"
   style="fill:#00324d" />
	<polygon
   class="st1"
   points="299.1,51.9 291.9,55.4 291.9,86.6 299.1,86.6 "
   id="polygon18"
   style="fill:#00324d" />
	<path
   class="st1"
   d="m 320.6,50.9 c -0.3,0 -0.7,0 -1.1,0 l -12,5.9 c -2.1,2.7 -3.6,6.7 -3.6,12.4 0,16.3 12.1,18.3 16.7,18.3 4.6,0 16.7,-2 16.7,-18.3 0,-16.3 -12.1,-18.3 -16.7,-18.3 z m 0,30.4 c -3.9,0 -9.4,-2.4 -9.4,-12.1 0,-9.7 5.5,-12.1 9.4,-12.1 3.9,0 9.4,2.4 9.4,12.1 0,9.7 -5.5,12.1 -9.4,12.1 z"
   id="path20"
   inkscape:connector-curvature="0"
   style="fill:#00324d" />
	<polygon
   class="st1"
   points="348.9,61.8 363,86.6 370.3,86.6 370.3,51.9 363.5,55.2 363.5,76 363.4,76 349.7,51.9 342,55.6 342,86.6 348.8,86.6 348.8,61.8 "
   id="polygon22"
   style="fill:#00324d" />
	<polygon
   class="st1"
   points="417.7,51.9 410.4,55.4 410.4,86.6 431.3,86.6 434.9,80.3 417.7,80.3 "
   id="polygon24"
   style="fill:#00324d" />
	<path
   class="st1"
   d="m 223.7,114.7 c 1.4,-0.7 4.3,-2.1 4.3,-7.1 0,-3.6 -2.2,-8.9 -10.7,-8.9 h -9.6 l -7.3,3.6 v 31.1 h 14.7 c 7.1,0 9,-1.2 11,-3.1 1.8,-1.8 3,-4.4 3,-7.2 -0.1,-3.4 -1.2,-6.8 -5.4,-8.4 z m -16.4,-10 h 8.3 c 3.3,0 5.3,0.9 5.3,3.7 0,2.8 -2.3,3.9 -5.1,3.9 h -8.5 z m 8.9,22.7 h -8.9 v -9.3 h 9.2 c 2.6,0 5.2,1.2 5.2,4.2 0.1,3.6 -1.9,5.1 -5.5,5.1 z"
   id="path26"
   inkscape:connector-curvature="0"
   style="fill:#00324d" />
	<polygon
   class="st1"
   points="272.8,108.7 286.9,133.4 294.2,133.4 294.2,98.7 287.4,102 287.4,122.9 287.3,122.9 273.6,98.7 265.9,102.4 265.9,133.4 272.7,133.4 272.7,108.7 "
   id="polygon28"
   style="fill:#00324d" />
	<path
   class="st1"
   d="m 250.7,98.7 v 0 l -10.1,4.9 -10.6,29.8 h 7.6 l 2.4,-7.2 h 12.8 l 2.2,7.2 h 7.9 z m -8.8,21.6 4.4,-13.7 h 0.1 l 4.3,13.7 z"
   id="path30"
   inkscape:connector-curvature="0"
   style="fill:#00324d" />
	<polygon
   class="st1"
   points="310.9,118.2 321.6,133.4 330.9,133.4 316,112.9 330.1,98.7 318.9,100.7 307.5,112.8 307.5,98.7 300.3,102.3 300.3,133.4 307.5,133.4 307.5,121.7 "
   id="polygon32"
   style="fill:#00324d" />
</g>
</svg>