<svg width="600" height="162" viewBox="0 0 600 162" xmlns="http://www.w3.org/2000/svg"><title>netflix-logo</title><path d="M567.9027 77.112L600 162c-9.4595-1.35-18.9135-3.0402-28.5405-4.563l-18.0811-46.9044L534.8 153.5652c-9.119-1.5228-18.0757-2.0304-27.1946-3.213l32.6-74.25L510.6378 0h27.3676l16.5514 42.5196L572.2973 0h27.6973l-32.0919 77.112zM489.027 0h-24.8324v147.15c8.1081.5076 16.5513.8424 24.8324 1.8522V0zm-46.2865 145.4598c-22.6324-1.5174-45.2702-2.862-68.4108-3.375V0h25.3352v118.125c14.5297.3348 29.054 1.512 43.0756 2.187v25.1478zm-95.4432-87.912v25.3098h-34.627V140.4h-24.9946V0h70.946v25.3098h-45.946v32.238h34.627-.0054zm-102.1946-32.238V141.75c-8.4486 0-17.0595 0-25.3405.3348V25.3098h-26.1838V0h77.8702v25.3098h-26.3459zm-78.8865 58.8924c-11.146 0-24.3243 0-33.7838.513v37.6272c14.8649-1.0152 29.7298-2.1924 44.7622-2.7v24.3l-70.0973 5.5728V0h70.0919v25.3098h-44.7568V59.4c9.8 0 24.8325-.5076 33.7838-.5076v25.3152-.0054zM25.8378 70.0272v88.425C16.7243 159.4674 8.6108 160.65 0 162V0h24.1568l32.935 91.9728V0h25.3406v151.5348c-8.9513 1.5228-18.0756 2.0304-27.7027 3.375L25.8378 70.0272z" fill="#E50914" fill-rule="nonzero"/></svg>