<svg width="721" height="857" viewBox="0 0 721 857" xmlns="http://www.w3.org/2000/svg"><title>ups-logo</title><g fill-rule="nonzero" fill="none"><path d="M360.075 857.02c-22.3-9.68-204.33-89.24-263.185-137.5C33.5 667.57 0 592.97 0 503.8V79.9C100.06 26.89 221.185 0 360.08 0c138.9 0 260.035 26.885 360.07 79.9v423.9c0 89.185-33.49 163.775-96.825 215.72-57.95 47.49-242.1 128.29-263.25 137.5zm198.55-47.25c5.4 0 7.35 3.35 7.35 6.49 0 3.05-1.97 5.165-4.89 5.86.59.88 6.635 9.715 6.635 9.715h-4.82l-5.985-9.2h-.57v9.2h-4v-22.06h6.265l.015-.005zm-2.28 3.225v6.55h.48c4.27 0 5.15-1.4 5.15-3.47 0-1.435-.44-3.1-3.825-3.1h-1.815l.01.02zm2.43-7.1c-8.235 0-14.93 6.725-14.93 14.95 0 8.22 6.7 14.915 14.935 14.915 8.28 0 14.96-6.7 14.96-14.91 0-8.225-6.69-14.965-14.97-14.965l.005.01zm18.15 14.95c0 10-8.115 18.12-18.16 18.12-9.99 0-18.125-8.125-18.125-18.115 0-9.99 8.135-18.18 18.125-18.18 10.05 0 18.15 8.2 18.15 18.185l.01-.01z" fill="#FFB500"/><path d="M33.09 503.8c0 78.99 29.215 144.935 84.69 190.14 49 39.94 199.78 108.165 242.3 126.925 41.965-18.5 192.37-85.86 242.235-126.925 55.85-46 84.75-110.4 84.75-190.135V88.835C477.43 69.35 229.4 81.3 33.1 261.33v242.475l-.01-.005zm31.98-25.22V281.665h62.63v199.7c0 17.765 4.28 44.07 33 44.07 12.725 0 22.82-2.98 29.64-7.65V281.67h62.55v271.765c-23.93 16.28-56.06 25.15-94.4 25.15-61.99 0-93.42-33.61-93.42-100v-.005zm282.625 227.285h-62.68V297.6c22.7-14.66 50.27-22.285 84.42-22.285 74.775 0 115.9 56.74 115.9 148.05 0 91.515-39.95 154.16-109.47 154.16-12.85 0-21.93-1.71-28.19-3.575v131.915h.02zm0-375.58c5.075-2.53 13.675-4.52 22.175-4.52 36.35 0 51.415 29.025 51.415 99.2 0 68.48-17.235 101.565-53.285 101.565-8.47 0-15.835-2.09-20.315-3.78V330.285h.01zm151.83 26.67c-.275-50.6 42.82-80.415 84.05-81.625 34.39-1.05 57.72 11.885 68.73 20.35v54.47c-13.05-13.4-34.225-25.535-56.125-25.74-17.75-.15-36.23 7.65-36.85 29.92-.6 22.8 17.835 31.82 41.215 45.52 52.35 30.76 62.45 58.415 61.25 94.95-1.18 40.065-28.8 83.8-90.71 83.8-24.76 0-49.25-7.73-68.865-19.43v-57.685c16.015 14.24 39.9 25.33 59.9 25.49 22.975.1 38.085-13.065 37.55-34.92-.45-19.65-11.57-30.35-39.13-46.52-51.65-30.32-60.925-55.25-61.02-88.565l.005-.015z" fill="#351C15"/></g></svg>