<svg width="634" height="107" viewBox="0 0 634 107" xmlns="http://www.w3.org/2000/svg"><title>usps-logo</title><g fill-rule="nonzero" fill="none"><path fill="#FFF" d="M148.818 106.92L171.546 0H22.734L0 106.92z"/><path d="M25.83 4.416s82.746 16.986 84.384 17.28c19.014 3.366 18.42 7.026 18.42 7.026 13.32-.078 14.958.468 17.292 2.406 7.002 5.856-4.386 23.094-4.386 23.094-1.626 1.2-124.716 48.744-124.716 48.744h128.784L166.656 3.93l-140.748.018-.078.468z" fill="#004B87"/><path d="M122.166 36.486c-1.872.924-6.75 1.428-9.024 1.626-2.202.174-2.802.39-2.838 1.248-.024.75.336 1.17 3.468 1.17 7.236 0 20.256-2.73 24.174-1.476 2.082.66.414 4.356-1.284 9.21-.654 1.872.63 1.746 1.38.918.756-.828 4.122-7.014 4.488-10.152.522-4.47-3.306-5.142-8.598-5.142h-8.406c-.438 0-.816.294-1.326.996-.462.594-.846.996-2.034 1.602" fill="#004B87"/><path d="M21.042 26.844L4.878 102.99S54.396 78.678 60.45 75.576c12.408-6.372 29.568-14.808 45.426-20.196 3.024-1.032 15.966-5.022 23.502-6.36 2.928-.534 4.164-1.02 4.128-1.584-.108-1.548-3.048-1.644-8.022-1.41-15.186.726-44.274 12.3-52.644 16.716l-9.45-29.286h60.396c2.7-7.608-35.742-6.546-36.948-6.618H21.042v.006zM202.014 41.742c-9.774 0-15.63-3.936-13.71-12.63 3.204-15.066 5.334-25.17 5.334-25.17h8.178s-5.028 23.25-4.878 22.668c-1.284 5.766 0 9.24 6.276 9.282 6.006 0 9.06-3.468 10.302-9.282.708-3.3 4.866-22.668 4.866-22.668h8.19c-5.496 25.17 0 0-5.442 25.17-1.866 8.694-9.318 12.63-19.116 12.63M259.17 41.07h-10.308l-9.168-27.558h-.156l-5.742 27.558h-7.254l7.878-37.14h10.614l8.808 27.858h.102l5.844-27.858h7.242zM275.202 41.07h-8.172l7.86-37.14h8.19zM318.54 9.858h-11.538l-6.624 31.206h-8.19l6.642-31.206h-11.562l1.308-5.916h31.218zM350.91 9.858h-18.702l-2.064 9.666h16.302l-1.182 5.478h-16.302l-2.124 10.164h18.678l-1.248 5.898h-26.904l7.92-37.122h26.868zM373.458 9.858h-8.352l-5.376 25.314h5.85c9.258 0 14.592-6.06 16.038-14.394 1.026-5.904-1.398-10.92-8.16-10.92m-6.432 31.206H350.25l7.866-37.122h18.018c11.232 0 15.006 7.458 13.422 16.926-2.232 13.356-12.168 20.196-22.53 20.196M429.336 9.858h-8.742c-4.464 0-6.468.918-6.882 2.73-1.254 5.904 14.742 10.602 13.254 19.728-.834 5.07-5.286 8.748-15.54 8.748h-12.528l1.254-5.892h10.092c3.102 0 6.924.15 7.65-2.964 1.188-5.328-14.538-10.62-13.356-19.512.72-5.34 5.496-8.748 15.114-8.748h10.974l-1.29 5.91zM464.814 9.858h-11.556l-6.618 31.206h-8.178l6.63-31.206h-11.544l1.29-5.916h31.23zM466.29 41.07l3.21-5.904h11.712l-3.27-23.868L461.64 41.07h-8.178l21.27-37.14h9.792l5.778 37.14zM523.512 9.858h-11.526l-6.63 31.206h-8.184l6.618-31.206h-11.532l1.29-5.916h31.218zM555.834 9.858h-18.678l-2.076 9.666h16.314l-1.194 5.478h-16.308l-2.13 10.164h18.702l-1.248 5.898h-26.934l7.944-37.122h26.862zM584.754 9.858h-8.742c-4.452 0-6.48.918-6.882 2.73-1.242 5.904 14.748 10.602 13.26 19.728-.846 5.07-5.286 8.748-15.54 8.748h-12.528l1.242-5.892h10.092c3.108 0 6.936.15 7.668-2.964 1.188-5.328-14.55-10.62-13.368-19.512.738-5.34 5.496-8.748 15.126-8.748h10.986l-1.314 5.91zM190.908 88.77c-1.296 0-2.694-.21-3.882-.306l-.414-5.406c1.032.12 2.382.276 3.618.276 5.592 0 7.614-3.834 8.082-6.06.87-4.044-1.194-5.538-4.2-5.538h-6.672l-6.63 31.218h-8.19l7.872-37.122h17.766c8.022 0 8.958 6.996 7.974 11.64-1.5 7.044-7.974 11.298-15.324 11.298M231.246 71.058c-7.404 0-12.33 4.92-14.244 13.308-1.608 7.2.93 13.362 8.598 13.362 7.404 0 12.366-4.962 14.142-13.362 1.59-7.512-.948-13.308-8.496-13.308m-6.948 32.568c-11.436 0-17.862-8.688-15.642-19.26 2.808-13.188 12.378-19.194 23.868-19.194 11.4 0 17.97 8.178 15.594 19.194-2.904 13.512-12.228 19.26-23.82 19.26M277.794 71.736h-8.742c-4.464 0-6.474.93-6.888 2.742-1.236 5.886 14.754 10.614 13.254 19.728-.834 5.076-5.28 8.754-15.534 8.754H247.35l1.254-5.904h10.092c3.102 0 6.942.162 7.668-2.946 1.176-5.34-14.562-10.62-13.374-19.524.726-5.334 5.502-8.76 15.138-8.76h10.98l-1.314 5.91zM313.278 71.736H301.74l-6.642 31.224h-8.178l6.63-31.224H282l1.296-5.91h31.206zM314.808 102.954l3.21-5.898h11.7l-3.258-23.868-16.32 29.766h-8.16l21.258-37.128h9.798l5.79 37.128zM368.208 102.954h-25.122l7.872-37.128h8.238l-6.618 31.23h16.92zM412.464 71.736h-8.748c-4.458 0-6.48.93-6.888 2.742-1.23 5.886 14.766 10.614 13.266 19.728-.834 5.076-5.286 8.754-15.54 8.754H382.02l1.242-5.904h10.104c3.102 0 6.936.162 7.662-2.946 1.176-5.34-14.562-10.62-13.362-19.524.72-5.334 5.496-8.76 15.12-8.76h10.968l-1.29 5.91zM446.466 71.736H427.77l-2.058 9.672h16.308l-1.194 5.49h-16.302l-2.118 10.158h18.678l-1.236 5.904H412.92l7.926-37.134h26.862zM469.998 86.952l6.12 16.002h-8.958l-6.732-20.352c1.032.15 2.334.114 3.12.114 4.194 0 8.016-1.758 8.892-6.168.462-2.322.048-4.86-4.494-4.86h-7.356l-6.624 31.266h-8.178l7.872-37.128h17.286c7.242 0 10.146 3.258 9.672 9.468-.51 6.996-5.184 10.884-10.62 11.658M500.214 102.954h-9.678l-5.586-37.128h8.166l3.846 29.778 16.308-29.778h8.076zM526.584 102.954h-8.178l7.866-37.128h8.19zM567.63 72.252c-2.322-.672-4.902-1.182-8.7-1.182-7.392 0-13.71 4.908-15.468 13.296-1.758 8.388 2.424 13.356 9.834 13.356 3.876 0 7.008-.564 9.948-1.296l-2.016 6.378c-3 .468-6.024.828-9.168.828-11.382 0-19.824-5.964-16.986-19.26 2.796-13.296 13.77-19.2 25.17-19.2 2.742 0 5.484.366 8.124.816l-.738 6.264zM600.612 71.736h-18.684l-2.082 9.672h16.32l-1.194 5.49h-16.308l-2.124 10.158h18.678l-1.23 5.904H567.06l7.92-37.134h26.874z" fill="#004B87"/><path fill="#DA291C" d="M183.42 52.092l-.576 2.742H604.2l.564-2.742z"/><path d="M619.272 86.214h2.802c1.434 0 2.982.27 2.982 2.07 0 2.148-1.71 2.244-3.588 2.244h-2.196v-4.314zm-2.1 11.862h2.106v-5.838h2.244l3.69 5.838h2.262l-3.876-5.994c2.016-.21 3.576-1.248 3.576-3.696 0-2.616-1.524-3.882-4.746-3.882h-5.25v13.572h-.006zm-7.176-6.828c0 6.672 5.34 11.67 11.7 11.67 6.342 0 11.652-4.998 11.652-11.67 0-6.57-5.316-11.568-11.652-11.568-6.366 0-11.7 4.998-11.7 11.568zm2.106 0c0-5.58 4.158-9.858 9.594-9.858 5.376 0 9.54 4.278 9.54 9.858 0 5.676-4.158 9.96-9.54 9.96-5.436 0-9.594-4.284-9.594-9.96z" fill="#004B87"/></g></svg>