<svg width="529" height="360" viewBox="0 0 529 360" xmlns="http://www.w3.org/2000/svg"><g fill="none" fill-rule="evenodd"><path d="M387.53 28.216C351.08 10.717 309.524.877 266.147.877c-43.377 0-84.93 9.84-121.38 27.702-12.762 30.621-19.686 64.521-19.686 99.516 0 35.358 6.927 68.892 19.686 99.876 36.45 17.496 78.003 27.702 121.38 27.702 43.377 0 84.933-10.206 121.383-27.702 12.762-30.615 20.052-64.515 20.052-99.876-.003-34.995-7.29-68.895-20.052-99.879z" fill="#367C2B" fill-rule="nonzero"/><path d="M378.782 35.872c-33.897-15.672-72.54-24.786-112.635-24.786S187.412 20.2 153.512 35.872c-11.298 28.8-17.496 59.781-17.496 92.223s6.195 63.789 17.496 92.223c33.9 16.038 72.54 24.786 112.635 24.786s79.101-8.748 112.635-24.786c11.661-28.434 17.859-59.415 17.859-92.223 0-32.442-6.558-63.426-17.859-92.223z" fill="#FFDE00" fill-rule="nonzero"/><path d="M226.778 98.566c-5.832 12.03-9.84 25.152-11.664 40.098-.366 0-3.282.366-3.282.366-12.759 1.095-25.515 2.187-37.911 6.924l.729 4.74c20.415 25.152 51.396 40.461 51.396 40.461l-5.832-11.301c-1.458-1.092-5.832-2.187-5.832-2.187-13.851-4.374-23.694-22.599-25.152-25.515 11.301 0 21.507 3.279 30.984 6.561 6.561 1.824 12.759 4.008 18.954 4.74 10.935 1.821 22.236 0 32.805-1.461 8.385-1.092 16.407-1.092 24.429-.366 1.089 1.095 9.474 11.301 17.859 15.675 10.206 5.103 39.732 14.214 41.19 14.58.726.366 12.03 12.027 19.317 25.152-33.54 15.312-71.079 23.325-108.627 23.325-37.545 0-75.09-8.016-108.624-23.325-10.935-28.431-16.767-58.323-16.767-88.941 0-30.255 5.832-60.147 16.767-88.575 33.534-15.312 71.079-23.328 108.624-23.328 37.911 0 75.456 8.019 108.627 23.328 10.935 28.431 16.764 58.32 16.764 88.575a244.044 244.044 0 0 1-13.851 81.288c-10.569-18.228-14.94-23.694-14.94-23.694-.363 0-14.946-7.656-18.591-10.938-2.919-2.553-4.371-7.653-6.198-13.488-2.187-8.382-5.097-18.591-13.119-26.973l9.111-3.648c-2.55-17.13-22.962-28.065-23.325-28.065l-.369.366c8.022 9.84 9.48 17.859 9.48 22.965 0 2.55-.363 4.371-.726 5.1-2.19-1.092-17.133-5.832-51.762-4.374-4.74 0-12.03-.363-16.404-4.374-2.553-2.187-3.645-5.832-3.645-9.843 0-12.027 5.103-28.068 5.832-30.252l8.751 1.092c10.935-5.832 14.943-11.301 15.306-12.027-9.111 1.095-21.138 3.279-21.138 3.279.729-1.824 2.916-8.748 2.916-16.404 0-8.385-2.55-17.496-13.122-22.965l-.732.366c.366.363 6.195 6.924 6.195 15.672 0 2.553-.363 5.469-1.458 8.019-3.645-1.092-5.832-1.455-9.843-1.455-2.184-7.293-8.379-13.125-16.764-16.041l-.366.363s9.114 6.564 9.477 15.678c-4.374.363-6.924 1.092-12.393 2.55-2.553-3.645-7.656-6.561-14.583-7.29v.732s8.019 2.55 9.477 8.748c-4.734 2.187-10.569 5.466-13.851 8.385l.366.366c20.412-7.656 39.366-9.477 44.106-3.645 1.092 1.092 1.458 2.187 1.458 3.645 0 1.455-.732 3.645-2.187 5.832-9.84 2.187-25.149 6.195-37.542 10.935l1.821 5.103s12.393 2.553 17.133 3.648c0 0 1.821.363.726 1.818zM.215 346.186s6.594 2.397 13.986 2.397c7.992 0 12.786-1.194 15.582-3.996 2.199-2.196 3.198-5.994 3-11.784V295.24H44.57v39.363c-.198 17.379-8.589 24.774-28.17 24.774-9.591 0-16.185-1.599-16.185-1.599v-11.592zm78.717-39.555c18.78 0 29.769 9.99 29.769 26.772 0 11.988-7.791 25.974-29.769 25.974-22.176 0-29.967-13.986-29.967-25.974-.003-16.782 11.184-26.772 29.967-26.772zm18.18 26.175c0-10.188-6.591-15.984-18.18-15.984-11.589 0-18.378 5.796-18.378 15.984 0 14.181 11.586 16.185 18.378 16.185s18.18-2.007 18.18-16.185zm58.536-24.975h11.79v50.346h-11.79v-20.181H125.48v20.181h-11.586v-50.346h11.586v19.977h30.168v-19.977zm175.416 39.957h34.563v10.389h-46.353v-50.346h46.353v10.185h-34.563v9.792h26.769v10.188h-26.769v9.792zm52.347 0h34.758v10.389h-46.35v-50.346h46.35v10.185h-34.758v9.792h26.772v10.188h-26.772v9.792zm109.881 0h34.764v10.389H481.7v-50.346h46.356v10.185h-34.764v9.792h26.772v10.188h-26.772v9.792zM279.518 295.24c22.176 0 35.559 11.988 35.562 31.971 0 14.184-9.189 30.966-35.562 30.966h-28.17V295.24h28.17zm0 10.395h-16.584v42.153h16.584c8.994 0 23.976-2.796 23.976-21.381 0-13.185-8.793-20.772-23.976-20.772zm183.801 33.363l14.79 19.176h-14.187l-13.986-18.381h-13.788v18.381h-11.583v-50.343h32.964c11.385 0 17.976 5.991 17.976 16.179 0 5.994-3.192 12.792-12.186 14.988zm-27.168-9.591h21.381c2.397 0 6.393-.798 6.393-5.796 0-3.393-2.403-5.595-6.393-5.595h-21.381v11.391zm-219.765 28.77l-30.372-34.365v34.365h-11.583v-50.346h11.583l30.372 33.963v-33.963h11.586v50.346h-11.586z" fill="#367C2B"/></g></svg>